<?xml version="1.0" standalone="no"?>
<!DOCTYPE svg PUBLIC "-//W3C//DTD SVG 20010904//EN"
 "http://www.w3.org/TR/2001/REC-SVG-20010904/DTD/svg10.dtd">
<svg version="1.0" xmlns="http://www.w3.org/2000/svg"
 width="64.000000pt" height="64.000000pt" viewBox="0 0 64.000000 64.000000"
 preserveAspectRatio="xMidYMid meet">

<g transform="translate(0.000000,64.000000) scale(0.100000,-0.100000)"
fill="#000000" stroke="none">
<path d="M115 620 c-3 -5 -1 -10 4 -10 6 0 11 5 11 10 0 6 -2 10 -4 10 -3 0
-8 -4 -11 -10z"/>
<path d="M338 619 c-23 -13 -52 -114 -30 -106 4 1 8 -2 10 -8 2 -5 -3 -11 -10
-12 -7 -2 -24 16 -38 38 -28 46 -84 94 -99 85 -10 -7 -8 -46 5 -99 5 -22 2
-31 -15 -43 -12 -9 -19 -19 -16 -24 3 -4 -2 -10 -10 -14 -16 -6 -21 -36 -6
-36 5 0 17 7 26 16 9 9 17 15 19 13 40 -59 39 -67 -10 -49 -26 10 -26 10 -20
-22 4 -18 7 -45 7 -60 0 -20 5 -28 17 -28 14 0 15 2 2 10 -8 5 -12 11 -9 15 3
3 16 -4 30 -15 19 -18 21 -23 9 -30 -8 -6 -10 -10 -5 -10 6 0 10 -24 10 -52 0
-107 30 -112 62 -9 10 31 22 59 28 63 6 5 5 8 -2 8 -7 0 -13 5 -13 11 0 6 7 9
15 5 8 -3 15 -1 15 3 0 5 7 11 14 14 11 4 13 1 9 -11 -4 -9 -11 -20 -17 -24
-7 -5 -7 -8 2 -8 6 0 12 -4 12 -10 0 -5 -6 -10 -13 -10 -7 0 -23 -21 -36 -47
-16 -34 -18 -43 -7 -34 11 10 16 10 16 2 0 -6 -7 -14 -15 -17 -8 -4 -13 -10
-10 -14 3 -4 -5 -10 -18 -14 -14 -3 -26 -17 -33 -41 -13 -41 -4 -44 39 -11 18
13 59 37 92 53 63 30 147 89 202 140 46 43 68 126 55 203 -12 65 -77 183 -105
188 -9 2 -17 -2 -17 -8 0 -6 5 -8 10 -5 6 3 10 1 10 -4 0 -6 -9 -11 -19 -11
-29 0 -51 -11 -51 -25 0 -7 -7 -15 -15 -19 -30 -11 -14 21 19 39 19 11 33 23
30 27 -7 11 -106 9 -126 -3z m45 -41 c-2 -5 -10 -8 -18 -8 -7 0 -16 -12 -19
-26 -4 -15 -10 -23 -13 -20 -10 9 -13 36 -4 36 4 0 15 14 26 32 17 29 19 30
25 12 4 -10 6 -22 3 -26z m54 -93 c-28 -50 -25 -56 11 -22 23 20 25 21 18 2
-4 -11 -10 -32 -13 -47 -6 -28 -23 -39 -23 -15 0 8 -9 18 -20 23 -20 9 -20 10
9 57 39 60 51 62 18 2z m133 1 c0 -2 -14 -19 -31 -37 -31 -33 -31 -32 5 29 6
11 26 17 26 8z m-175 -110 c-8 -6 -22 -20 -30 -31 -16 -20 -16 -20 -6 2 14 27
14 36 1 28 -16 -10 -12 7 7 27 16 18 18 18 30 2 10 -14 10 -19 -2 -28z m78
-10 c-10 -14 -24 -27 -31 -30 -7 -3 0 10 15 29 31 39 45 40 16 1z m-233 -106
c0 -5 -4 -10 -10 -10 -5 0 -10 5 -10 10 0 6 5 10 10 10 6 0 10 -4 10 -10z m30
0 c0 -5 -4 -10 -10 -10 -5 0 -10 5 -10 10 0 6 5 10 10 10 6 0 10 -4 10 -10z
m90 0 c0 -5 -4 -10 -10 -10 -5 0 -10 5 -10 10 0 6 5 10 10 10 6 0 10 -4 10
-10z m30 0 c0 -5 -4 -10 -10 -10 -5 0 -10 5 -10 10 0 6 5 10 10 10 6 0 10 -4
10 -10z m-150 -30 c0 -5 -4 -10 -10 -10 -5 0 -10 5 -10 10 0 6 5 10 10 10 6 0
10 -4 10 -10z m30 0 c0 -5 -4 -10 -10 -10 -5 0 -10 5 -10 10 0 6 5 10 10 10 6
0 10 -4 10 -10z m90 0 c0 -5 -4 -10 -10 -10 -5 0 -10 5 -10 10 0 6 5 10 10 10
6 0 10 -4 10 -10z m30 0 c0 -5 -4 -10 -10 -10 -5 0 -10 5 -10 10 0 6 5 10 10
10 6 0 10 -4 10 -10z m-55 -50 c-10 -11 -20 -18 -23 -15 -7 6 18 35 31 35 5 0
2 -9 -8 -20z"/>
<path d="M21 374 c0 -11 3 -14 6 -6 3 7 2 16 -1 19 -3 4 -6 -2 -5 -13z"/>
<path d="M20 336 c0 -8 5 -18 10 -21 6 -3 10 1 10 9 0 8 -4 18 -10 21 -5 3
-10 -1 -10 -9z"/>
<path d="M50 301 c0 -7 -4 -9 -10 -6 -5 3 -10 1 -10 -4 0 -6 4 -11 9 -11 13 0
25 20 17 27 -3 4 -6 1 -6 -6z"/>
<path d="M67 214 c-3 -4 1 -21 10 -38 9 -17 18 -26 20 -19 5 15 -21 66 -30 57z"/>
<path d="M90 213 c0 -6 10 -23 21 -38 16 -19 19 -29 10 -34 -8 -5 -2 -12 15
-20 15 -6 29 -9 32 -6 3 3 -1 5 -9 5 -12 0 -12 2 0 9 11 7 10 12 -8 22 -12 8
-21 24 -21 38 0 13 -3 21 -7 18 -3 -4 -12 -2 -20 4 -8 7 -13 7 -13 2z"/>
<path d="M157 213 c-10 -10 -8 -23 4 -23 5 0 8 4 4 9 -3 5 3 12 12 14 14 4 15
5 2 6 -9 0 -19 -2 -22 -6z"/>
</g>
</svg>
